#!OML:ASF F:\VICON\USERDATA\INSTALL\rory3\rory3.ASF
:FULLY-SPECIFIED
:DEGREES
72
root -0.02847859923557927 17.76027886775299 31.462313495723585 -2.804758032717684 -0.20835971267269593 -2.5059473949922024
lfemur 9.455249867358752 -5.249588688185568 -22.047933469126594
ltibia 46.420198924372215
lfoot -1.2219640559486216 -2.1574709468422184
ltoes -3.3472574034031637
rfemur -19.097857328316653 4.950574695343806 25.821947481291605
rtibia 31.244647468203517
rfoot -7.192848360721286 -5.735963904374953
rtoes 3.034628539745059
lowerback 9.275056721772092 -0.33491598643280296 0.46448605923523323
upperback 0.582196899774583 -0.6014356783753743 2.11572526314185
thorax -4.61813389382253 0.03936983176555697 1.7680043903885903
lowerneck -16.616774995003496 -2.887743298616375 -2.1490949364952128
upperneck 20.22066711152333 -3.623592703431842 1.5976283691697382
head 9.24649191876662 -1.7759957364970917 0.2559894305223989
lclavicle -1.952115985593982e-15 9.078050100531165e-16
lhumerus -24.230699313089005 -3.6511774559767183 83.82180013061956
lradius 24.36619675428724
lwrist 6.063226292936755
lhand -26.89266505232117 23.75028416695153
lfingers 7.12502
lthumb -0.20753604931262504 54.2552859732202
rclavicle -1.9534744340273978e-15 9.065538929497491e-16
rhumerus -31.53813016579224 -24.65601690863994 -76.04275042059692
rradius 22.931398314977606
rwrist 7.891042637050548
rhand -17.90881487068317 22.443103000911194
rfingers 7.12502
rthumb 8.54619090515488 -6.843959933805395
73
root -0.10090852447586979 17.8263196472469 32.252723752899236 -3.168749614012212 -0.39101674176827617 -3.585122093756903
lfemur 4.744146030942174 -4.294953578303287 -19.263502454742692
ltibia 51.164008550984576
lfoot -1.685316301993991 -2.106807346886751
ltoes -3.7750196083907026
rfemur -17.64709921057547 5.0299373946399655 26.943600093000608
rtibia 32.154517666047425
rfoot -7.335697765825347 -5.306398732312004
rtoes 3.7096810143947194
lowerback 9.305867379198387 -0.1084871568650303 1.3915927163048467
upperback 0.5824375632027661 -0.25300594816127164 2.338334729032321
thorax -4.65161083784446 0.15012223760084092 1.4136079325084328
lowerneck -16.639921708132015 -2.8720371276143495 -2.174056562914056
upperneck 20.199570983659488 -3.6089102016016543 1.5963815242489483
head 9.240481251743946 -1.7686625717847566 0.2575899322596469
lclavicle -1.952115985594085e-15 9.078050100530217e-16
lhumerus -25.86912315674518 -2.986904935832369 84.20190026141974
lradius 24.159782662808766
lwrist 5.9819619208199875
lhand -26.866805939299077 23.79602670370088
lfingers 7.12502
lthumb -0.143048004868905 54.40485701296332
rclavicle -1.9534744340273642e-15 9.065538929497803e-16
rhumerus -30.492456762630056 -23.15725474671461 -77.04971406780957
rradius 22.85597280596621
rwrist 7.701076296818929
rhand -17.911666484856738 22.43417275548169
rfingers 7.12502
rthumb 8.551659902450439 -6.846180030496901
74
root -0.16462155662754446 17.88046154524088 32.820212959398276 -3.455070885402893 -0.6783078771033795 -4.41089486745254
lfemur -0.43754398075207845 -2.9990530757303695 -16.763478016879013
ltibia 54.29947282374481
lfoot -2.036875644543797 -1.8006649997626738
ltoes -4.071675705101768
rfemur -14.704844908772323 5.407838863749133 28.505617044366826
rtibia 33.016974575732945
rfoot -7.276990231796223 -4.863521710217309
rtoes 4.1147621038418745
lowerback 9.332801542383818 0.1177004381056117 2.08511250532771
upperback 0.5867428128145307 0.0776604116479156 2.461535580701177
thorax -4.679831434066127 0.2902764748535345 1.0990734101869817
lowerneck -16.66385273186863 -2.8493214322607163 -2.1651916762133885
upperneck 20.171793874754318 -3.6051943021248802 1.5940306295687159
head 9.239297717715708 -1.762272200534528 0.26440725101863827
lclavicle -1.9521159855937328e-15 9.078050100533463e-16
lhumerus -27.444497324670138 -2.41454970009334 84.56767707377543
lradius 23.991227882683205
lwrist 5.908026669203248
lhand -26.794800205228796 23.93906105244073
lfingers 7.12502
lthumb -0.14064101557873476 54.40460299518025
rclavicle -1.9534744340272727e-15 9.065538929498645e-16
rhumerus -29.397878630709506 -21.29354454667206 -77.9895404948592
rradius 22.912028631128674
rwrist 7.339559202734627
rhand -17.91611701887222 22.433722323515774
rfingers 7.12502
rthumb 8.554002955416433 -6.846562217647649
75
root -0.21593353888916994 17.91517708895464 33.14127050294051 -3.6330956985991962 -1.1408838818407463 -5.024806354753835
lfemur -5.592393436355069 -1.479398634340953 -15.368307476649488
ltibia 55.963507601615575
lfoot -2.178546263454947 -1.770904064213052
ltoes -4.020592533799955
rfemur -12.57693447143397 5.567878381418179 29.423520357749684
rtibia 33.726395341978105
rfoot -7.357248470497163 -4.621660524925513
rtoes 4.397259930174332
lowerback 9.3830410547538 0.4041529192476566 2.7620096649623687
upperback 0.6071582241849582 0.5471877309882179 2.5454362990418518
thorax -4.709769669967923 0.44827731245101693 0.7622100013059067
lowerneck -16.669297596770836 -2.8415815336171755 -2.169998785265824
upperneck 20.16968986265646 -3.595156532180502 1.6343901275392003
head 9.233665396453048 -1.7616308038268984 0.27062115831285266
lclavicle -1.9521159855937675e-15 9.078050100533143e-16
lhumerus -28.79826723284725 -1.9709588730860756 84.86963687301542
lradius 23.765095993026037
lwrist 5.589179417422651
lhand -26.784216018787856 23.95729066327202
lfingers 7.12502
lthumb -0.08523169520809526 54.54386341138317
rclavicle -1.9534744340273347e-15 9.065538929498073e-16
rhumerus -28.410335807321264 -19.17924503450034 -78.93230264294482
rradius 23.10230352090416
rwrist 6.924521973490455
rhand -17.897078203860495 22.46720533467962
rfingers 7.12502
rthumb 8.571653130239094 -6.7978133731603325
76
root -0.24887064416365462 17.928676335653936 33.45354142352877 -3.672859872564939 -1.7742642809421223 -5.509189522531888
lfemur -10.534711900429567 0.13361284911214266 -14.522135857626134
ltibia 56.09708574105777
lfoot -2.7483265635142002 -1.9553843928924983
ltoes -4.218793401791104
rfemur -9.49224435791948 5.841668031477807 30.674494926662057
rtibia 34.14654591189761
rfoot -7.14095504332712 -4.3799769867114735
rtoes 4.7475700329278485
lowerback 9.423120940931492 0.6754491086105041 3.298121288346926
upperback 0.6218213961164655 1.0102062075161 2.5324109683458715
thorax -4.740878034766764 0.6137662681635043 0.43348682937847477
lowerneck -16.67932533895399 -2.8323909517146793 -2.158673363781427
upperneck 20.119353359013513 -3.606521458366264 1.6352588818539666
head 9.23277157682595 -1.7660118494841277 0.2770613832372909
lclavicle -1.9521159855936788e-15 9.078050100533958e-16
lhumerus -29.992425608967775 -1.6971882031936663 85.06446318616268
lradius 23.52418053471435
lwrist 5.188201175006289
lhand -26.770160825956566 23.997492711592027
lfingers 7.12502
lthumb -0.10816125568065926 54.49704963099253
rclavicle -1.953474434027353e-15 9.065538929497907e-16
rhumerus -27.456852853234132 -16.885346997936836 -79.8285946464282
rradius 23.44865366459003
rwrist 6.653257007500772
rhand -17.886435945054025 22.476064764175092
rfingers 7.12502
rthumb 8.591681458437915 -6.742902923350133
77
root -0.26393540715627856 17.921913798672037 33.92701029254274 -3.559519592502766 -2.532284312489243 -5.961121768172186
lfemur -15.013531716405993 1.694854826816163 -13.81610464534533
ltibia 54.23433966722857
lfoot -2.4711329336565337 -1.159408360276047
ltoes -4.694830110329073
rfemur -7.037169930169696 5.935266797983431 31.39249733011745
rtibia 34.27756509518848
rfoot -6.770046680836716 -4.126943908993859
rtoes 5.662850590688969
lowerback 9.456740927439512 0.9494904476177937 3.8351766034267385
upperback 0.635136322192603 1.598869996466891 2.5212652046126323
thorax -4.77539618901199 0.7760463937870643 0.08266222158156378
lowerneck -16.7116899733654 -2.834731627508805 -2.1546824992172176
upperneck 20.071211334568815 -3.6223091015840594 1.6662103248647482
head 9.225978920480621 -1.7742780313877666 0.2784768557869979
lclavicle -1.9521159855938267e-15 9.078050100532597e-16
lhumerus -30.972710729401754 -1.347172385365566 85.19439779263212
lradius 23.213512665905107
lwrist 4.8089373628172645
lhand -26.809278321404438 23.932198061643785
lfingers 7.12502
lthumb -0.06189484307508086 54.61638277359925
rclavicle -1.9534744340273512e-15 9.06553892949792e-16
rhumerus -26.59402007244716 -14.81145593812979 -80.61061855349833
rradius 23.824498685228267
rwrist 6.171285653362355
rhand -17.893297486612767 22.435710315912754
rfingers 7.12502
rthumb 8.575257863067968 -6.790276940985419
78
root -0.2657731246661837 17.898581410974927 34.5413157585474 -3.29350216588114 -3.356008764152471 -6.435653946950556
lfemur -19.34498641621597 2.8863838655686114 -13.193830770987681
ltibia 50.2377824231213
lfoot -2.178088933174076 -0.6907509546742873
ltoes -4.687276641699261
rfemur -4.8209379082903725 6.021532390280499 32.09645662615002
rtibia 34.23114363388013
rfoot -6.466257330544826 -3.967935176419734
rtoes 6.250699825748315
lowerback 9.471344501756857 1.2094116586503734 4.376264628041988
upperback 0.6126134900641196 2.062918380428791 2.43599931107509
thorax -4.800414171877174 0.9286642930112656 -0.24796012361384767
lowerneck -16.736833267080108 -2.8393866777941743 -2.1598257494587196
upperneck 20.039312762066576 -3.627498943667449 1.7021908137349029
head 9.213914440184654 -1.7847802505565855 0.27273512059372595
lclavicle -1.9521159855936614e-15 9.078050100534118e-16
lhumerus -31.85794742474957 -0.7926617169572323 85.23330650207386
lradius 22.868595481871512
lwrist 4.39426615972395
lhand -26.832386108892262 23.906553937319334
lfingers 7.12502
lthumb -0.11893285566890732 54.500334820306065
rclavicle -1.9534744340273276e-15 9.065538929498138e-16
rhumerus -25.84373092073921 -13.169289717463839 -81.20399525860472
rradius 24.16164363325859
rwrist 5.8078023001335035
rhand -17.89868869435088 22.41243055521603
rfingers 7.12502
rthumb 8.568390610809669 -6.822394667982568
